<svg xmlns="http://www.w3.org/2000/svg" viewBox="0 0 320 240" width="320" height="240" role="img">
  <rect width="320" height="240" fill="#ffffff"/>
  <rect x="26" y="23.0" width="268" height="1.4" fill="#111111"/>
  <rect x="26" y="215.6" width="268" height="1.4" fill="#111111"/>
  <rect x="26.0" y="30.0" width="52.0" height="10.1" rx="0.8" fill="#c4c4c4"/>
  <rect x="80.0" y="30.0" width="52.0" height="10.1" rx="0.8" fill="#c4c4c4"/>
  <rect x="188.0" y="30.0" width="52.0" height="10.1" rx="0.8" fill="#c4c4c4"/>
  <rect x="26.0" y="42.1" width="52.0" height="10.1" rx="0.8" fill="#c4c4c4"/>
  <rect x="80.0" y="42.1" width="52.0" height="10.1" rx="0.8" fill="#c4c4c4"/>
  <rect x="134.0" y="42.1" width="52.0" height="10.1" rx="0.8" fill="#c4c4c4"/>
  <rect x="188.0" y="42.1" width="52.0" height="10.1" rx="0.8" fill="#c4c4c4"/>
  <rect x="242.0" y="42.1" width="52.0" height="10.1" rx="0.8" fill="#c4c4c4"/>
  <rect x="26.0" y="54.3" width="52.0" height="10.1" rx="0.8" fill="#d2d2d2"/>
  <rect x="26.0" y="66.4" width="52.0" height="10.1" rx="0.8" fill="#e8e8e8"/>
  <rect x="80.0" y="66.4" width="52.0" height="10.1" rx="0.8" fill="#e8e8e8"/>
  <rect x="134.0" y="66.4" width="52.0" height="10.1" rx="0.8" fill="#e8e8e8"/>
  <rect x="188.0" y="66.4" width="52.0" height="10.1" rx="0.8" fill="#d2d2d2"/>
  <rect x="242.0" y="66.4" width="52.0" height="10.1" rx="0.8" fill="#d2d2d2"/>
  <rect x="26.0" y="78.5" width="52.0" height="10.1" rx="0.8" fill="#d2d2d2"/>
  <rect x="80.0" y="78.5" width="52.0" height="10.1" rx="0.8" fill="#e8e8e8"/>
  <rect x="134.0" y="78.5" width="52.0" height="10.1" rx="0.8" fill="#e8e8e8"/>
  <rect x="188.0" y="78.5" width="52.0" height="10.1" rx="0.8" fill="#d2d2d2"/>
  <rect x="242.0" y="78.5" width="52.0" height="10.1" rx="0.8" fill="#d2d2d2"/>
  <rect x="26.0" y="90.7" width="52.0" height="10.1" rx="0.8" fill="#d2d2d2"/>
  <rect x="80.0" y="90.7" width="52.0" height="10.1" rx="0.8" fill="#e8e8e8"/>
  <rect x="134.0" y="90.7" width="52.0" height="10.1" rx="0.8" fill="#e8e8e8"/>
  <rect x="188.0" y="90.7" width="52.0" height="10.1" rx="0.8" fill="#d2d2d2"/>
  <rect x="242.0" y="90.7" width="52.0" height="10.1" rx="0.8" fill="#d2d2d2"/>
  <rect x="26.0" y="102.8" width="52.0" height="10.1" rx="0.8" fill="#e8e8e8"/>
  <rect x="26.0" y="114.9" width="52.0" height="10.1" rx="0.8" fill="#e8e8e8"/>
  <rect x="80.0" y="114.9" width="52.0" height="10.1" rx="0.8" fill="#e8e8e8"/>
  <rect x="134.0" y="114.9" width="52.0" height="10.1" rx="0.8" fill="#d2d2d2"/>
  <rect x="188.0" y="114.9" width="52.0" height="10.1" rx="0.8" fill="#e8e8e8"/>
  <rect x="242.0" y="114.9" width="52.0" height="10.1" rx="0.8" fill="#d2d2d2"/>
  <rect x="26.0" y="127.1" width="52.0" height="10.1" rx="0.8" fill="#e8e8e8"/>
  <rect x="80.0" y="127.1" width="52.0" height="10.1" rx="0.8" fill="#d2d2d2"/>
  <rect x="134.0" y="127.1" width="52.0" height="10.1" rx="0.8" fill="#d2d2d2"/>
  <rect x="188.0" y="127.1" width="52.0" height="10.1" rx="0.8" fill="#d2d2d2"/>
  <rect x="242.0" y="127.1" width="52.0" height="10.1" rx="0.8" fill="#d2d2d2"/>
  <rect x="26.0" y="139.2" width="52.0" height="10.1" rx="0.8" fill="#e8e8e8"/>
  <rect x="26.0" y="151.3" width="52.0" height="10.1" rx="0.8" fill="#e8e8e8"/>
  <rect x="80.0" y="151.3" width="52.0" height="10.1" rx="0.8" fill="#d2d2d2"/>
  <rect x="134.0" y="151.3" width="52.0" height="10.1" rx="0.8" fill="#d2d2d2"/>
  <rect x="188.0" y="151.3" width="52.0" height="10.1" rx="0.8" fill="#e8e8e8"/>
  <rect x="242.0" y="151.3" width="52.0" height="10.1" rx="0.8" fill="#e8e8e8"/>
  <rect x="26.0" y="163.5" width="52.0" height="10.1" rx="0.8" fill="#e8e8e8"/>
  <rect x="80.0" y="163.5" width="52.0" height="10.1" rx="0.8" fill="#d2d2d2"/>
  <rect x="134.0" y="163.5" width="52.0" height="10.1" rx="0.8" fill="#d2d2d2"/>
  <rect x="188.0" y="163.5" width="52.0" height="10.1" rx="0.8" fill="#e8e8e8"/>
  <rect x="242.0" y="163.5" width="52.0" height="10.1" rx="0.8" fill="#e8e8e8"/>
  <rect x="26.0" y="175.6" width="52.0" height="10.1" rx="0.8" fill="#e8e8e8"/>
  <rect x="80.0" y="175.6" width="52.0" height="10.1" rx="0.8" fill="#d2d2d2"/>
  <rect x="134.0" y="175.6" width="52.0" height="10.1" rx="0.8" fill="#d2d2d2"/>
  <rect x="188.0" y="175.6" width="52.0" height="10.1" rx="0.8" fill="#e8e8e8"/>
  <rect x="242.0" y="175.6" width="52.0" height="10.1" rx="0.8" fill="#e8e8e8"/>
  <rect x="26.0" y="187.7" width="52.0" height="10.1" rx="0.8" fill="#e8e8e8"/>
  <rect x="80.0" y="187.7" width="52.0" height="10.1" rx="0.8" fill="#111111"/>
  <rect x="134.0" y="187.7" width="52.0" height="10.1" rx="0.8" fill="#111111"/>
  <rect x="188.0" y="187.7" width="52.0" height="10.1" rx="0.8" fill="#111111"/>
  <rect x="242.0" y="187.7" width="52.0" height="10.1" rx="0.8" fill="#111111"/>
  <rect x="26.0" y="199.9" width="52.0" height="10.1" rx="0.8" fill="#e8e8e8"/>
  <rect x="80.0" y="199.9" width="52.0" height="10.1" rx="0.8" fill="#111111"/>
  <rect x="134.0" y="199.9" width="52.0" height="10.1" rx="0.8" fill="#111111"/>
  <rect x="188.0" y="199.9" width="52.0" height="10.1" rx="0.8" fill="#111111"/>
  <rect x="242.0" y="199.9" width="52.0" height="10.1" rx="0.8" fill="#111111"/>
  <rect x="26" y="53.3" width="268" height="1" fill="#111111"/>
  <rect x="26" y="101.8" width="268" height="1" fill="#111111"/>
  <rect x="26" y="138.2" width="268" height="1" fill="#111111"/>
</svg>
